<svg width="22" height="21" viewBox="0 0 22 21" fill="none" xmlns="http://www.w3.org/2000/svg">
<path d="M6.41675 9.625C6.41675 9.14174 6.82716 8.75 7.33341 8.75C7.83967 8.75 8.25008 9.14174 8.25008 9.625C8.25008 10.1083 7.83967 10.5 7.33341 10.5C6.82716 10.5 6.41675 10.1083 6.41675 9.625Z" fill="white"/>
<path d="M6.41675 14C6.41675 13.5167 6.82716 13.125 7.33341 13.125C7.83967 13.125 8.25008 13.5167 8.25008 14C8.25008 14.4833 7.83967 14.875 7.33341 14.875C6.82716 14.875 6.41675 14.4833 6.41675 14Z" fill="white"/>
<path d="M10.0833 9.625C10.0833 9.14174 10.4936 8.75 10.9999 8.75C11.5062 8.75 11.9166 9.14174 11.9166 9.625C11.9166 10.1083 11.5062 10.5 10.9999 10.5C10.4936 10.5 10.0833 10.1083 10.0833 9.625Z" fill="white"/>
<path d="M10.0833 14C10.0833 13.5167 10.4936 13.125 10.9999 13.125C11.5062 13.125 11.9166 13.5167 11.9166 14C11.9166 14.4833 11.5062 14.875 10.9999 14.875C10.4936 14.875 10.0833 14.4833 10.0833 14Z" fill="white"/>
<path d="M13.75 9.625C13.75 9.14174 14.1604 8.75 14.6667 8.75C15.1729 8.75 15.5833 9.14174 15.5833 9.625C15.5833 10.1083 15.1729 10.5 14.6667 10.5C14.1604 10.5 13.75 10.1083 13.75 9.625Z" fill="white"/>
<path d="M13.75 14C13.75 13.5167 14.1604 13.125 14.6667 13.125C15.1729 13.125 15.5833 13.5167 15.5833 14C15.5833 14.4833 15.1729 14.875 14.6667 14.875C14.1604 14.875 13.75 14.4833 13.75 14Z" fill="white"/>
<path fill-rule="evenodd" clip-rule="evenodd" d="M7.33325 1.75C7.83951 1.75 8.24992 2.14175 8.24992 2.625V3.5H13.7499V2.625C13.7499 2.14175 14.1603 1.75 14.6666 1.75C15.1729 1.75 15.5833 2.14175 15.5833 2.625V3.5C18.1145 3.5 20.1666 5.45876 20.1666 7.875V14.875C20.1666 17.2912 18.1145 19.25 15.5833 19.25H6.41658C3.88528 19.25 1.83325 17.2912 1.83325 14.875V7.875C1.83325 5.45876 3.88528 3.5 6.41658 3.5V2.625C6.41658 2.14175 6.82699 1.75 7.33325 1.75ZM6.41658 5.25C4.89781 5.25 3.66659 6.42526 3.66659 7.875V14.875C3.66659 16.3248 4.89781 17.5 6.41658 17.5H15.5833C17.1021 17.5 18.3333 16.3248 18.3333 14.875V7.875C18.3333 6.42526 17.1021 5.25 15.5833 5.25C15.5833 5.73325 15.1729 6.125 14.6666 6.125C14.1603 6.125 13.7499 5.73325 13.7499 5.25H8.24992C8.24992 5.73325 7.83951 6.125 7.33325 6.125C6.82699 6.125 6.41658 5.73325 6.41658 5.25Z" fill="white"/>
</svg>
