<svg width="19" height="19" viewBox="0 0 19 19" fill="none" xmlns="http://www.w3.org/2000/svg">
<path d="M15.0417 2.375H3.95833C3.08388 2.375 2.375 3.08388 2.375 3.95833V4.88583C2.375 5.30576 2.54181 5.70848 2.83875 6.00542L7.45292 10.6196C7.74985 10.9165 7.91667 11.3192 7.91667 11.7391V15.8333V16.0595C7.91667 16.5603 8.52221 16.8111 8.87633 16.457L9.5 15.8333L10.6196 14.7138C10.9165 14.4168 11.0833 14.0141 11.0833 13.5942V11.7391C11.0833 11.3192 11.2501 10.9165 11.5471 10.6196L16.1612 6.00542C16.4582 5.70848 16.625 5.30576 16.625 4.88583V3.95833C16.625 3.08388 15.9161 2.375 15.0417 2.375Z" stroke="white" stroke-width="2" stroke-linecap="round" stroke-linejoin="round"/>
</svg>
